<?xml version="1.0" encoding="UTF-8" standalone="no"?>
<!-- Created with Inkscape (http://www.inkscape.org/) -->

<svg
   xmlns:osb="http://www.openswatchbook.org/uri/2009/osb"
   xmlns:dc="http://purl.org/dc/elements/1.1/"
   xmlns:cc="http://creativecommons.org/ns#"
   xmlns:rdf="http://www.w3.org/1999/02/22-rdf-syntax-ns#"
   xmlns:svg="http://www.w3.org/2000/svg"
   xmlns="http://www.w3.org/2000/svg"
   xmlns:sodipodi="http://sodipodi.sourceforge.net/DTD/sodipodi-0.dtd"
   xmlns:inkscape="http://www.inkscape.org/namespaces/inkscape"
   width="744.09448819"
   height="1052.3622047"
   id="svg2"
   version="1.1"
   inkscape:version="0.48.5 r10040"
   sodipodi:docname="Sona.svg"
   inkscape:export-filename="D:\Char\Desktop\Sonarin Project\Prototyping\4\Sona\Sona.png"
   inkscape:export-xdpi="90"
   inkscape:export-ydpi="90">
  <defs
     id="defs4">
    <inkscape:perspective
       sodipodi:type="inkscape:persp3d"
       inkscape:vp_x="971.28673 : 609.32213 : 1"
       inkscape:vp_y="-109.09609 : -994.03121 : 0"
       inkscape:vp_z="231.63359 : 690.49993 : 1"
       inkscape:persp3d-origin="620.59492 : 824.25785 : 1"
       id="perspective4184" />
    <linearGradient
       id="linearGradient5355"
       osb:paint="solid">
      <stop
         style="stop-color:#000000;stop-opacity:1;"
         offset="0"
         id="stop5357" />
    </linearGradient>
    <filter
       inkscape:label="Cross-smooth"
       inkscape:menu="Blurs"
       inkscape:menu-tooltip="Blur inner borders and intersections"
       color-interpolation-filters="sRGB"
       id="filter3118">
      <feGaussianBlur
         stdDeviation="3"
         id="feGaussianBlur3120" />
      <feColorMatrix
         result="fbSourceGraphic"
         values="1 0 0 0 0 0 1 0 0 0 0 0 1 0 0 0 0 0 6 -2.5 "
         id="feColorMatrix3122" />
    </filter>
    <filter
       inkscape:label="Cross-smooth"
       inkscape:menu="Blurs"
       inkscape:menu-tooltip="Blur inner borders and intersections"
       color-interpolation-filters="sRGB"
       id="filter3124">
      <feGaussianBlur
         stdDeviation="3"
         id="feGaussianBlur3126" />
      <feColorMatrix
         result="fbSourceGraphic"
         values="1 0 0 0 0 0 1 0 0 0 0 0 1 0 0 0 0 0 6 -2.5 "
         id="feColorMatrix3128" />
    </filter>
    <filter
       inkscape:label="Cross-smooth"
       inkscape:menu="Blurs"
       inkscape:menu-tooltip="Blur inner borders and intersections"
       color-interpolation-filters="sRGB"
       id="filter3130">
      <feGaussianBlur
         stdDeviation="3"
         id="feGaussianBlur3132" />
      <feColorMatrix
         result="fbSourceGraphic"
         values="1 0 0 0 0 0 1 0 0 0 0 0 1 0 0 0 0 0 6 -2.5 "
         id="feColorMatrix3134" />
    </filter>
    <filter
       inkscape:label="Cross-smooth"
       inkscape:menu="Blurs"
       inkscape:menu-tooltip="Blur inner borders and intersections"
       color-interpolation-filters="sRGB"
       id="filter3136">
      <feGaussianBlur
         stdDeviation="3"
         id="feGaussianBlur3138" />
      <feColorMatrix
         result="fbSourceGraphic"
         values="1 0 0 0 0 0 1 0 0 0 0 0 1 0 0 0 0 0 6 -2.5 "
         id="feColorMatrix3140" />
    </filter>
    <filter
       inkscape:label="Cross-smooth"
       inkscape:menu="Blurs"
       inkscape:menu-tooltip="Blur inner borders and intersections"
       color-interpolation-filters="sRGB"
       id="filter3142">
      <feGaussianBlur
         stdDeviation="3"
         id="feGaussianBlur3144" />
      <feColorMatrix
         result="fbSourceGraphic"
         values="1 0 0 0 0 0 1 0 0 0 0 0 1 0 0 0 0 0 6 -2.5 "
         id="feColorMatrix3146" />
    </filter>
    <filter
       inkscape:label="Clean edges"
       inkscape:menu="ABCs"
       inkscape:menu-tooltip="Removes or decreases glows and jaggeries around objects edges after applying some filters"
       color-interpolation-filters="sRGB"
       id="filter3153"
       height="1"
       width="1"
       y="0"
       x="0">
      <feGaussianBlur
         stdDeviation="3"
         id="feGaussianBlur3155" />
      <feColorMatrix
         result="fbSourceGraphic"
         values="1 0 0 0 0 0 1 0 0 0 0 0 1 0 0 0 0 0 6 -2.5 "
         id="feColorMatrix3157" />
      <feColorMatrix
         result="fbSourceGraphicAlpha"
         in="fbSourceGraphic"
         values="0 0 0 -1 0 0 0 0 -1 0 0 0 0 -1 0 0 0 0 1 0"
         id="feColorMatrix4020" />
      <feGaussianBlur
         id="feGaussianBlur4022"
         result="result6"
         stdDeviation="0.4"
         in="fbSourceGraphic" />
      <feComposite
         id="feComposite4024"
         in2="result6"
         operator="in"
         in="fbSourceGraphic"
         result="result7" />
      <feComposite
         id="feComposite4026"
         in2="result7"
         operator="in"
         result="result8"
         in="result7" />
    </filter>
  </defs>
  <sodipodi:namedview
     id="base"
     pagecolor="#ffffff"
     bordercolor="#666666"
     borderopacity="1.0"
     inkscape:pageopacity="0.0"
     inkscape:pageshadow="2"
     inkscape:zoom="2"
     inkscape:cx="399.88151"
     inkscape:cy="766.3896"
     inkscape:document-units="px"
     inkscape:current-layer="layer1"
     showgrid="false"
     inkscape:window-width="1366"
     inkscape:window-height="683"
     inkscape:window-x="-8"
     inkscape:window-y="-8"
     inkscape:window-maximized="1"
     showguides="true"
     inkscape:guide-bbox="true" />
  <metadata
     id="metadata7">
    <rdf:RDF>
      <cc:Work
         rdf:about="">
        <dc:format>image/svg+xml</dc:format>
        <dc:type
           rdf:resource="http://purl.org/dc/dcmitype/StillImage" />
        <dc:title></dc:title>
      </cc:Work>
    </rdf:RDF>
  </metadata>
  <g
     inkscape:label="Layer 1"
     inkscape:groupmode="layer"
     id="layer1">
    <path
       sodipodi:nodetypes="cccccccccccc"
       inkscape:connector-curvature="0"
       id="path3883"
       d="m 253.3753,129.17626 64.46429,-5.0893 -1.33927,8.57151 -22.2656,15.62709 -14.59521,17.37922 -14.70074,18.41776 -26.76206,20.12433 -28.27431,11.44639 -46.43781,27.18375 36.00847,-52.41506 12.68516,-36.00453 z"
       style="fill:#009cf0;fill-opacity:1;stroke:#000000;stroke-opacity:1"
       inkscape:export-filename="D:\Char\Desktop\Sonarin Project\Prototyping\4\Sona\left-ponytail.png"
       inkscape:export-xdpi="90"
       inkscape:export-ydpi="90" />
    <path
       style="fill:#f7ff80;fill-opacity:1;stroke:none"
       d="m 184.85207,212.71931 -2.03832,6.43674 18.56922,-26.24087 -14.5972,30.51841 24.98807,-21.40697 -13.15489,15.94462 9.59542,-2.03765 -43.36222,25.68366 z"
       id="rect3150"
       inkscape:connector-curvature="0"
       sodipodi:nodetypes="ccccccccc"
       inkscape:export-filename="D:\Char\Desktop\Sonarin Project\Prototyping\4\Sona\left-ponytail.png"
       inkscape:export-xdpi="90"
       inkscape:export-ydpi="90" />
    <path
       style="fill:#e9afaf;fill-opacity:1;stroke:#000000;stroke-opacity:1"
       d="m 428.28569,754.43359 c 0,50.69185 -1.72225,111.78572 -14.14286,111.78572 -7.44963,0 -8.52993,-26.25972 -12.27113,-56.82847 -4.70255,-38.42385 -6.39375,-44.09402 -7.30029,-73.81439 -1.06663,-34.9686 5.72225,-53.92857 18.14285,-61.78571 14.11856,-8.93126 15.57143,29.951 15.57143,80.64285 z"
       id="path3052"
       inkscape:connector-curvature="0"
       sodipodi:nodetypes="ssssss"
       inkscape:export-filename="D:\Char\Desktop\Sonarin Project\Prototyping\4\Sona\left-leg.png"
       inkscape:export-xdpi="90"
       inkscape:export-ydpi="90" />
    <path
       sodipodi:nodetypes="ssssss"
       inkscape:connector-curvature="0"
       id="path3057"
       d="m 350.28569,754.43359 c 0,50.69185 -1.72225,111.78572 -14.14286,111.78572 -7.44963,0 -8.52993,-26.25972 -12.27113,-56.82847 -4.70255,-38.42385 -6.39375,-44.09402 -7.30029,-73.81439 -1.06663,-34.9686 5.72225,-53.92857 18.14285,-61.78571 14.11856,-8.93126 15.57143,29.951 15.57143,80.64285 z"
       style="fill:#e9afaf;fill-opacity:1;stroke:#000000;stroke-opacity:1"
       inkscape:export-filename="D:\Char\Desktop\Sonarin Project\Prototyping\4\Sona\right-leg.png"
       inkscape:export-xdpi="90"
       inkscape:export-ydpi="90" />
    <path
       transform="matrix(1.4878048,0,0,1.0393701,-205.4878,-23.974889)"
       style="fill:#e9afaf;fill-opacity:1;stroke:#000000;stroke-opacity:1"
       d="m 428.57142,598.07648 c -4.14808,90.4219 1.12567,90.71428 -14.64286,90.71428 -15.76853,0 -14.64286,-40.61417 -14.64286,-90.71428 0,-63.84471 -5.45144,-90.97245 14.64286,-90.71429 21.52735,0.27657 17.5661,26.99203 14.64286,90.71429 z"
       id="path3049"
       inkscape:connector-curvature="0"
       sodipodi:nodetypes="sssss"
       inkscape:export-filename="D:\Char\Desktop\Sonarin Project\Prototyping\4\Sona\left-thigh.png"
       inkscape:export-xdpi="90"
       inkscape:export-ydpi="90" />
    <path
       sodipodi:nodetypes="sssss"
       inkscape:connector-curvature="0"
       id="path3082"
       d="m 354.14282,597.64792 c -6.17154,93.98182 1.67477,94.28571 -21.78572,94.28571 -23.4605,0 -21.78572,-42.21315 -21.78572,-94.28571 0,-66.35828 -8.11068,-94.55404 21.78572,-94.28572 32.02849,0.28746 26.13493,28.05471 21.78572,94.28572 z"
       style="fill:#e9afaf;fill-opacity:1;stroke:#000000;stroke-opacity:1"
       inkscape:export-filename="D:\Char\Desktop\Sonarin Project\Prototyping\4\Sona\right-thigh.png"
       inkscape:export-xdpi="90"
       inkscape:export-ydpi="90" />
    <path
       sodipodi:type="arc"
       style="fill:#e9afaf;fill-opacity:1;stroke:none"
       id="path4045-9"
       sodipodi:cx="539.10712"
       sodipodi:cy="262.18359"
       sodipodi:rx="9.4642859"
       sodipodi:ry="8.3928576"
       d="m 548.5714,262.18359 a 9.4642859,8.3928576 0 1 1 -18.92857,0 9.4642859,8.3928576 0 1 1 18.92857,0 z"
       transform="matrix(1.2668327,0,0,1.1841883,-270.01473,377.80722)"
       inkscape:export-filename="D:\Char\Desktop\Sonarin Project\Prototyping\4\Sona\leg-join.png"
       inkscape:export-xdpi="90"
       inkscape:export-ydpi="90" />
    <path
       transform="matrix(1.2668327,0,0,1.1841883,-348.01473,377.80722)"
       d="m 548.5714,262.18359 a 9.4642859,8.3928576 0 1 1 -18.92857,0 9.4642859,8.3928576 0 1 1 18.92857,0 z"
       sodipodi:ry="8.3928576"
       sodipodi:rx="9.4642859"
       sodipodi:cy="262.18359"
       sodipodi:cx="539.10712"
       id="path4096"
       style="fill:#e9afaf;fill-opacity:1;stroke:none"
       sodipodi:type="arc" />
    <path
       sodipodi:nodetypes="cccccccccccc"
       inkscape:connector-curvature="0"
       id="path4043"
       d="m 310.54366,116.34381 12.14948,-1.86631 1.90517,23.33954 4.23215,7.18228 7.05025,7.09023 -8.54811,12.15487 -7.84926,4.83853 -9.39155,-3.01086 -5.71352,-7.59722 5.38763,-9.96666 1.69751,-12.31071 z"
       style="fill:#aa4400;fill-opacity:1;stroke:#f8aa2a;stroke-width:1.42918098;stroke-opacity:1"
       inkscape:export-filename="D:\Char\Desktop\Sonarin Project\Prototyping\4\Sona\head.png"
       inkscape:export-xdpi="90"
       inkscape:export-ydpi="90" />
    <path
       style="fill:#e9afaf;fill-opacity:1;stroke:#000000;stroke-opacity:1"
       d="m 387.9595,247.01807 c 0,4.6026 0.0429,10.33375 -8.35406,10.33375 -8.7541,0 -8.35407,-5.73115 -8.35407,-10.33375 0,-4.60261 -0.22146,-10.33376 8.35407,-10.33376 8.39696,0 8.35406,5.73115 8.35406,10.33376 z"
       id="path3040"
       inkscape:connector-curvature="0"
       sodipodi:nodetypes="sssss"
       inkscape:export-filename="D:\Char\Desktop\Sonarin Project\Prototyping\4\Sona\head.png"
       inkscape:export-xdpi="90"
       inkscape:export-ydpi="90" />
    <path
       sodipodi:nodetypes="sssss"
       inkscape:connector-curvature="0"
       id="path3043"
       d="m 194.0672,261.68288 c -0.31071,11.11392 31.88438,14.64721 71.21575,14.64721 39.33137,0 70.9464,1.51895 71.21575,-14.64721 0.2527,-15.1668 -31.88438,-12.64721 -71.21575,-12.64721 -39.33137,0 -70.84827,-0.49755 -71.21575,12.64721 z"
       style="fill:#e9afaf;fill-opacity:1;stroke:#000000;stroke-opacity:1"
       inkscape:export-filename="D:\Char\Desktop\Sonarin Project\Prototyping\4\Sona\right-arm.png"
       inkscape:export-xdpi="90"
       inkscape:export-ydpi="90" />
    <path
       style="fill:#e9afaf;fill-opacity:1;stroke:#000000;stroke-opacity:1"
       d="m 553.94613,261.68288 c 0.31071,11.11392 -31.88438,14.64721 -71.21575,14.64721 -39.33137,0 -70.9464,1.51895 -71.21575,-14.64721 -0.2527,-15.1668 31.88438,-12.64721 71.21575,-12.64721 39.33137,0 70.84827,-0.49755 71.21575,12.64721 z"
       id="path3014"
       inkscape:connector-curvature="0"
       sodipodi:nodetypes="sssss"
       inkscape:export-filename="D:\Char\Desktop\Sonarin Project\Prototyping\4\Sona\left-arm.png"
       inkscape:export-xdpi="90"
       inkscape:export-ydpi="90"
       inkscape:transform-center-x="-60.714286" />
    <path
       style="fill:#3cd4fc;fill-opacity:1;stroke:#000000;stroke-width:0.97132361;stroke-opacity:1"
       d="m 322.84648,390.21589 97.61889,0.71426 93.32593,246.14288 -308.3741,89.04526 z"
       id="rect3040"
       inkscape:connector-curvature="0"
       sodipodi:nodetypes="ccccc"
       inkscape:export-filename="D:\Char\Desktop\Sonarin Project\Prototyping\4\Sona\lower-body.png"
       inkscape:export-xdpi="90"
       inkscape:export-ydpi="90" />
    <path
       style="fill:#e9afaf;fill-opacity:1;stroke:#000000;stroke-opacity:1"
       d="m 323.21598,251.19769 98.18487,0 0,28.83929 -93.9334,1.51523 z"
       id="rect3048"
       inkscape:connector-curvature="0"
       sodipodi:nodetypes="ccccc"
       inkscape:export-filename="D:\Char\Desktop\Sonarin Project\Prototyping\4\Sona\upper-body.png"
       inkscape:export-xdpi="90"
       inkscape:export-ydpi="90" />
    <path
       style="fill:#3cd4fc;fill-opacity:1;stroke:#000000;stroke-opacity:1"
       d="m 321.61153,250.55984 47.44883,24.12915 29.78364,-2.11617 43.04859,67.05713 -12.51283,51.33573 -106.87505,0.35714 3.39283,-48.51774 z"
       id="rect3042"
       inkscape:connector-curvature="0"
       sodipodi:nodetypes="cccccccc"
       inkscape:export-filename="D:\Char\Desktop\Sonarin Project\Prototyping\4\Sona\upper-body.png"
       inkscape:export-xdpi="90"
       inkscape:export-ydpi="90"
       transform="matrix(0.91994678,0,0,1,25.570234,0)" />
    <path
       style="fill:#e9afaf;fill-opacity:1;stroke:#000000;opacity:1;stroke-opacity:1"
       d="m 439.94347,158.42512 c -0.88677,19.48935 -7.20864,45.15037 -17.50009,60.41312 -10.76649,15.96717 -25.00865,25.77986 -45.65291,25.77986 -18.47864,0 -34.11474,-13.4159 -45.2762,-22.69127 -14.96045,-12.43246 -25.9738,-28.28682 -25.9738,-49.40694 0,-39.81877 31.89971,-72.0982 71.25,-72.0982 39.35028,0 63.88797,41.84944 63.153,58.00343 z"
       id="path3885"
       inkscape:connector-curvature="0"
       sodipodi:nodetypes="sssssss"
       inkscape:export-filename="D:\Char\Desktop\Sonarin Project\Prototyping\4\Sona\head.png"
       inkscape:export-xdpi="90"
       inkscape:export-ydpi="90" />
    <path
       style="fill:#ea8484;fill-opacity:1;stroke:none"
       d="m 392.97058,226.01275 c 0,1.02861 -1.82732,2.02274 -9.57462,2.02274 -7.74735,0 -9.1922,-0.96268 -9.1922,-1.99125 0,-1.02861 4.30758,-0.67312 9.40424,-0.67312 4.35048,-0.17765 9.28026,-0.26695 9.36258,0.64163 z"
       id="path5421"
       inkscape:connector-curvature="0"
       sodipodi:nodetypes="csscc"
       inkscape:export-filename="D:\Char\Desktop\Sonarin Project\Prototyping\4\Sona\head.png"
       inkscape:export-xdpi="90"
       inkscape:export-ydpi="90" />
    <path
       style="fill:#a72700;fill-opacity:0.32211537;stroke:none"
       d="m 389.73422,208.6495 c 0,0.6441 -0.94416,0.56649 -3.40352,0.56649 -2.45941,0 -3.77839,0.30257 -3.77839,-0.34153 0,-0.64414 3.11833,-4.01527 5.57774,-4.01527 2.45936,0 1.60417,3.14621 1.60417,3.79036 z"
       id="path5426"
       inkscape:connector-curvature="0"
       sodipodi:nodetypes="sssss"
       inkscape:export-filename="D:\Char\Desktop\Sonarin Project\Prototyping\4\Sona\head.png"
       inkscape:export-xdpi="90"
       inkscape:export-ydpi="90" />
    <path
       sodipodi:nodetypes="sssssssssss"
       inkscape:connector-curvature="0"
       id="path5451"
       d="m 401.06192,174.31902 c 0.4275,5.12307 0.71986,10.47057 1.12756,10.78711 2.02198,1.57002 7.02216,3.11196 9.26041,3.11196 3.01287,0 6.82978,-1.13145 9.44608,-3.41482 0.13253,-0.1159 0.75544,-7.43432 1.08424,-11.50388 0.33725,-4.17587 0.968,-9.63799 0.71825,-9.91929 -1.06785,-1.20284 -2.84345,-2.55127 -4.89336,-3.43558 -2.23844,-0.96562 -4.77508,-1.41393 -6.35521,-1.41393 -2.22106,0 -4.62722,0.5985 -6.878,1.84376 -1.6056,0.88825 -3.09529,2.21611 -4.54993,3.38794 -0.17243,0.1387 0.57304,4.96137 1.03996,10.55673 z"
       style="fill:#ffffff;fill-opacity:1;stroke:none;opacity:1"
       inkscape:export-filename="D:\Char\Desktop\Sonarin Project\Prototyping\4\Sona\head.png"
       inkscape:export-xdpi="90"
       inkscape:export-ydpi="90" />
    <path
       transform="matrix(4.1045652,0,0,6.4316382,-241.09609,-5041.9868)"
       d="m 160.86679,810.80945 a 1.9571706,1.4275426 0 1 1 -3.91434,0 1.9571706,1.4275426 0 1 1 3.91434,0 z"
       sodipodi:ry="1.4275426"
       sodipodi:rx="1.9571706"
       sodipodi:cy="810.80945"
       sodipodi:cx="158.90962"
       id="path5444"
       style="fill:#803300;fill-opacity:1;stroke:none;opacity:1"
       sodipodi:type="arc"
       inkscape:export-filename="D:\Char\Desktop\Sonarin Project\Prototyping\4\Sona\head.png"
       inkscape:export-xdpi="90"
       inkscape:export-ydpi="90" />
    <path
       transform="matrix(4.75,0,0,6.1354168,-347.83301,-4801.8537)"
       d="m 159.73038,810.27283 a 0.44194174,0.37880722 0 1 1 -0.88388,0 0.44194174,0.37880722 0 1 1 0.88388,0 z"
       sodipodi:ry="0.37880722"
       sodipodi:rx="0.44194174"
       sodipodi:cy="810.27283"
       sodipodi:cx="159.28844"
       id="path5446"
       style="fill:#ffccaa;fill-opacity:1;stroke:none"
       sodipodi:type="arc"
       inkscape:export-filename="D:\Char\Desktop\Sonarin Project\Prototyping\4\Sona\head.png"
       inkscape:export-xdpi="90"
       inkscape:export-ydpi="90" />
    <path
       style="fill:#e9afaf;fill-opacity:1;stroke:#000000;stroke-opacity:1"
       d="m 84.067194,261.68288 c 0.32098,7.55484 17.884386,10.64721 57.215756,10.64721 39.33137,0 70.9464,5.51895 71.21575,-10.64721 0.2527,-15.1668 -31.88438,-8.64721 -71.21575,-8.64721 -39.33137,0 -57.517436,1.54662 -57.215756,8.64721 z"
       id="path3045"
       inkscape:connector-curvature="0"
       sodipodi:nodetypes="sssss"
       inkscape:export-filename="D:\Char\Desktop\Sonarin Project\Prototyping\4\Sona\right-forearm.png"
       inkscape:export-xdpi="90"
       inkscape:export-ydpi="90" />
    <path
       sodipodi:nodetypes="sssss"
       inkscape:connector-curvature="0"
       id="path3035"
       d="m 663.94613,261.68288 c -0.32098,7.55484 -17.88438,10.64721 -57.21575,10.64721 -39.33137,0 -70.9464,5.51895 -71.21575,-10.64721 -0.2527,-15.1668 31.88438,-8.64721 71.21575,-8.64721 39.33137,0 57.51743,1.54662 57.21575,8.64721 z"
       style="fill:#e9afaf;fill-opacity:1;stroke:#000000;stroke-opacity:1"
       inkscape:export-filename="D:\Char\Desktop\Sonarin Project\Prototyping\4\Sona\left-forearm.png"
       inkscape:export-xdpi="90"
       inkscape:export-ydpi="90"
       inkscape:transform-center-x="-54.408267" />
    <path
       style="fill:#e9afaf;fill-opacity:1;stroke:#000000;stroke-opacity:1"
       d="m 695.62001,264.16763 c -0.25253,10.84553 -15.66447,12.5321 -24.75907,12.11261 -4.23012,-0.19511 -2.93804,4.91969 -5.50489,4.76684 -8.21436,-0.48918 -9.84899,-12.25787 -9.84899,-18.39468 0,-6.13681 6.67084,-11.11168 14.89975,-11.11168 8.2289,0 25.35606,6.49176 25.2132,12.62691 z"
       id="path3037"
       inkscape:connector-curvature="0"
       sodipodi:nodetypes="ssssss"
       inkscape:export-filename="D:\Char\Desktop\Sonarin Project\Prototyping\4\Sona\left-hand.png"
       inkscape:export-xdpi="90"
       inkscape:export-ydpi="90" />
    <path
       style="fill:#ffffff;fill-opacity:1;stroke:none"
       d="m 369.76609,174.31902 c -0.4275,5.12307 -0.71986,10.47057 -1.12755,10.78711 -2.02198,1.57002 -7.02216,3.11196 -9.26041,3.11196 -3.01288,0 -6.82979,-1.13145 -9.44609,-3.41482 -0.13252,-0.1159 -0.75544,-7.43432 -1.08423,-11.50388 -0.33725,-4.17587 -0.96801,-9.63799 -0.71825,-9.91929 1.06785,-1.20284 2.84344,-2.55127 4.89335,-3.43558 2.23844,-0.96562 4.77508,-1.41393 6.35522,-1.41393 2.22105,0 4.62721,0.5985 6.878,1.84376 1.60559,0.88825 3.09529,2.21611 4.54993,3.38794 0.17242,0.1387 -0.57304,4.96137 -1.03997,10.55673 z"
       id="path5448"
       inkscape:connector-curvature="0"
       sodipodi:nodetypes="sssssssssss"
       inkscape:export-filename="D:\Char\Desktop\Sonarin Project\Prototyping\4\Sona\head.png"
       inkscape:export-xdpi="90"
       inkscape:export-ydpi="90" />
    <path
       sodipodi:type="arc"
       style="fill:#803300;fill-opacity:1;stroke:none"
       id="path5374"
       sodipodi:cx="158.90962"
       sodipodi:cy="810.80945"
       sodipodi:rx="1.9571706"
       sodipodi:ry="1.4275426"
       d="m 160.86679,810.80945 a 1.9571706,1.4275426 0 1 1 -3.91434,0 1.9571706,1.4275426 0 1 1 3.91434,0 z"
       transform="matrix(4.1045652,0,0,6.4316382,-292.59609,-5041.9868)"
       inkscape:export-filename="D:\Char\Desktop\Sonarin Project\Prototyping\4\Sona\head.png"
       inkscape:export-xdpi="90"
       inkscape:export-ydpi="90" />
    <path
       sodipodi:type="arc"
       style="fill:#ffccaa;fill-opacity:1;stroke:none"
       id="path5376"
       sodipodi:cx="159.28844"
       sodipodi:cy="810.27283"
       sodipodi:rx="0.44194174"
       sodipodi:ry="0.37880722"
       d="m 159.73038,810.27283 a 0.44194174,0.37880722 0 1 1 -0.88388,0 0.44194174,0.37880722 0 1 1 0.88388,0 z"
       transform="matrix(4.75,0,0,6.1354168,-399.33301,-4801.8537)"
       inkscape:export-filename="D:\Char\Desktop\Sonarin Project\Prototyping\4\Sona\head.png"
       inkscape:export-xdpi="90"
       inkscape:export-ydpi="90" />
    <path
       style="fill:#009cf0;fill-opacity:1;stroke:#000000;stroke-opacity:1"
       d="m 349.64759,102.54225 32.31458,-5.058276 21.1385,5.446986 18.22105,8.51754 14.83003,20.52946 10.09207,29.22409 -17.26475,-23.77816 7.40698,21.19068 -9.91778,-7.37873 9.58124,20.23128 -13.83857,-9.19511 -12.93712,-11.02168 -11.92518,-14.71694 -5.91349,19.88299 -13.34187,18.56018 0.39484,-13.63858 -22.35791,35.5146 -1.52153,-19.43116 -12.56089,22.73086 0.81389,-24.9477 -14.92339,20.92537 -1.16314,-15.76489 -5.40945,14.88158 2.13833,20.35717 -8.24302,-7.04921 -9.24583,-14.02566 -4.29148,-19.04023 11.07044,-51.25986 19.29095,-14.181 z"
       id="rect3887"
       inkscape:connector-curvature="0"
       sodipodi:nodetypes="cccccccccccccccccccccccccccccc"
       inkscape:export-filename="D:\Char\Desktop\Sonarin Project\Prototyping\4\Sona\head.png"
       inkscape:export-xdpi="90"
       inkscape:export-ydpi="90" />
    <path
       style="fill:#aa4400;fill-opacity:1;stroke:#f8aa2a;stroke-width:1.42918098;stroke-opacity:1"
       d="m 312.97048,132.68803 13.81155,-0.35714 -7.90052,25.38091 0.37235,10.71956 3.91106,11.16904 -10.32302,7.03821 -8.8318,2.64982 -8.29692,-5.33175 -3.56021,-8.81402 7.78464,-8.43715 3.35178,-5.60589 z"
       id="rect4028"
       inkscape:connector-curvature="0"
       sodipodi:nodetypes="cccccccccccc"
       inkscape:export-filename="D:\Char\Desktop\Sonarin Project\Prototyping\4\Sona\head.png"
       inkscape:export-xdpi="90"
       inkscape:export-ydpi="90" />
    <path
       sodipodi:type="arc"
       style="fill:#e9afaf;fill-opacity:1;stroke:none"
       id="path4045"
       sodipodi:cx="539.10712"
       sodipodi:cy="262.18359"
       sodipodi:rx="9.4642859"
       sodipodi:ry="8.3928576"
       d="m 548.5714,262.18359 a 9.4642859,8.3928576 0 1 1 -18.92857,0 9.4642859,8.3928576 0 1 1 18.92857,0 z"
       transform="matrix(1,0,0,1.0788745,1.7321433,-21.178357)"
       inkscape:export-filename="D:\Char\Desktop\Sonarin Project\Prototyping\4\Sona\forearm-join.png"
       inkscape:export-xdpi="90"
       inkscape:export-ydpi="90" />
    <path
       transform="matrix(0.66645907,0,0,0.67448948,297.37955,85.491425)"
       d="m 548.5714,262.18359 a 9.4642859,8.3928576 0 1 1 -18.92857,0 9.4642859,8.3928576 0 1 1 18.92857,0 z"
       sodipodi:ry="8.3928576"
       sodipodi:rx="9.4642859"
       sodipodi:cy="262.18359"
       sodipodi:cx="539.10712"
       id="path4060"
       style="fill:#e9afaf;fill-opacity:1;stroke:none"
       sodipodi:type="arc"
       inkscape:export-filename="D:\Char\Desktop\Sonarin Project\Prototyping\4\Sona\hand-join.png"
       inkscape:export-xdpi="90"
       inkscape:export-ydpi="90" />
    <path
       inkscape:export-ydpi="90"
       inkscape:export-xdpi="90"
       inkscape:export-filename="D:\Char\Desktop\Sonarin Project\Prototyping\4\Sona\right-hand.png"
       sodipodi:nodetypes="ssssss"
       inkscape:connector-curvature="0"
       id="path4074"
       d="m 50.86571,264.16763 c 0.25253,10.84553 15.66447,12.5321 24.75907,12.11261 4.23012,-0.19511 2.93804,4.91969 5.50489,4.76684 8.21436,-0.48918 9.84899,-12.25787 9.84899,-18.39468 0,-6.13681 -6.67084,-11.11168 -14.89975,-11.11168 -8.2289,0 -25.35606,6.49176 -25.2132,12.62691 z"
       style="fill:#e9afaf;fill-opacity:1;stroke:#000000;stroke-opacity:1"
       inkscape:transform-center-x="16.607143"
       inkscape:transform-center-y="3.5714286" />
    <path
       sodipodi:type="arc"
       style="fill:#e9afaf;fill-opacity:1;stroke:none"
       id="path4076"
       sodipodi:cx="539.10712"
       sodipodi:cy="262.18359"
       sodipodi:rx="9.4642859"
       sodipodi:ry="8.3928576"
       d="m 548.5714,262.18359 a 9.4642859,8.3928576 0 1 1 -18.92857,0 9.4642859,8.3928576 0 1 1 18.92857,0 z"
       transform="matrix(-0.66645907,0,0,0.62752976,449.1062,97.788173)" />
    <path
       style="fill:#ececec;fill-opacity:1;stroke:#000000;stroke-opacity:1"
       d="m 389.64285,867.07648 c 0,5.3256 -14.87055,3.64285 -33.21429,3.64285 -38.34375,0 -33.21429,-0.0315 -33.21429,-9.64285 0,-13.89704 22.93283,-8.12761 35.21429,-5.64286 10.83393,2.19189 31.21429,5.24582 31.21429,11.64286 z"
       id="path3059"
       inkscape:connector-curvature="0"
       sodipodi:nodetypes="sssss"
       inkscape:export-filename="D:\Char\Desktop\Sonarin Project\Prototyping\4\Sona\right-foot.png"
       inkscape:export-xdpi="90"
       inkscape:export-ydpi="90" />
    <path
       sodipodi:nodetypes="sssss"
       inkscape:connector-curvature="0"
       id="path3080"
       d="m 467.64285,867.07648 c 0,5.3256 -14.87055,3.64285 -33.21429,3.64285 -38.34375,0 -33.21429,-0.0315 -33.21429,-9.64285 0,-13.89704 22.93283,-8.12761 35.21429,-5.64286 10.83393,2.19189 31.21429,5.24582 31.21429,11.64286 z"
       style="fill:#ececec;fill-opacity:1;stroke:#000000;stroke-opacity:1"
       inkscape:export-filename="D:\Char\Desktop\Sonarin Project\Prototyping\4\Sona\left-foot.png"
       inkscape:export-xdpi="90"
       inkscape:export-ydpi="90" />
    <path
       style="fill:#009cf0;fill-opacity:1;stroke:#000000;stroke-opacity:1;"
       d="m 261.58964,147.46197 53.39286,-4.37501 -1.62947,10.69205 -9.58364,3.07161 -12.19084,19.74295 -13.88892,13.03412 -13.76431,11.82281 -9.74663,24.76265 -12.60907,10.92228 -19.43502,7.69643 -54.91994,23.79086 38.15133,-51.70077 11.32104,-33.58001 17.25695,-22.78166 z"
       id="rect3106"
       inkscape:connector-curvature="0"
       sodipodi:nodetypes="ccccccccccccccc"
       inkscape:export-filename="D:\Char\Desktop\Sonarin Project\Prototyping\4\Sona\right-ponytail.png"
       inkscape:export-xdpi="90"
       inkscape:export-ydpi="90" />
    <path
       sodipodi:nodetypes="ccccccccc"
       inkscape:connector-curvature="0"
       id="path3996"
       d="m 203.10682,221.06086 -12.20788,25.49657 9.69077,-11.43073 23.51664,-17.07208 -20.41709,28.02723 8.51969,-3.35634 13.06844,0.35188 -56.59643,24.35409 z"
       style="fill:#f7ff80;fill-opacity:1;stroke:none"
       inkscape:export-filename="D:\Char\Desktop\Sonarin Project\Prototyping\4\Sona\right-ponytail.png"
       inkscape:export-xdpi="90"
       inkscape:export-ydpi="90" />
    <path
       transform="matrix(1,0,0,1.0788745,-332.26786,-21.178357)"
       d="m 548.5714,262.18359 a 9.4642859,8.3928576 0 1 1 -18.92857,0 9.4642859,8.3928576 0 1 1 18.92857,0 z"
       sodipodi:ry="8.3928576"
       sodipodi:rx="9.4642859"
       sodipodi:cy="262.18359"
       sodipodi:cx="539.10712"
       id="path4058"
       style="fill:#e9afaf;fill-opacity:1;stroke:none"
       sodipodi:type="arc" />
    <path
       transform="matrix(0.82036198,0,0,0.65123107,-62.661179,80.887955)"
       d="m 548.5714,262.18359 a 9.4642859,8.3928576 0 1 1 -18.92857,0 9.4642859,8.3928576 0 1 1 18.92857,0 z"
       sodipodi:ry="8.3928576"
       sodipodi:rx="9.4642859"
       sodipodi:cy="262.18359"
       sodipodi:cx="539.10712"
       id="path4058-7"
       style="fill:#e9afaf;fill-opacity:1;stroke:none"
       sodipodi:type="arc"
       inkscape:export-filename="D:\Char\Desktop\Sonarin Project\Prototyping\4\Sona\neck-join.png"
       inkscape:export-xdpi="90"
       inkscape:export-ydpi="90" />
    <path
       style="fill:#d4aa00;fill-opacity:1;stroke:#000000;stroke-opacity:1"
       d="m 572.83934,385.85306 39.62936,4.78588 -6.98403,10.13998 -9.82587,14.99908 -42.20301,34.48468 -40.66081,28.07875 -129.91841,49.663 -22.8608,-6.89121 -16.75931,-11.49429 -1.96849,-8.03534 20.397,-11.9305 121.44469,-42.04683 72.73209,-45.78521 z"
       id="rect4139"
       inkscape:connector-curvature="0"
       sodipodi:nodetypes="cccccccccccccc"
       inkscape:export-filename="D:\Char\Desktop\Sonarin Project\Prototyping\4\Sona\etwahl.png"
       inkscape:export-xdpi="90"
       inkscape:export-ydpi="90" />
    <path
       style="fill:#502d16;fill-opacity:1;stroke:#000000;stroke-opacity:1;opacity:1"
       d="m 570.53573,395.93362 22.14286,10.71427 -21.12745,16.74239 -71.95559,46.66991 -109.88822,39.30202 -17.78418,-16.52034 115.24267,-40.78861 71.4993,-45.47125 z"
       id="rect4144"
       inkscape:connector-curvature="0"
       sodipodi:nodetypes="ccccccccc"
       inkscape:export-filename="D:\Char\Desktop\Sonarin Project\Prototyping\4\Sona\etwahl.png"
       inkscape:export-xdpi="90"
       inkscape:export-ydpi="90" />
    <path
       sodipodi:nodetypes="ccccccc"
       inkscape:connector-curvature="0"
       id="path4163"
       d="m 571.29207,392.24303 23.41247,11.03122 0.85982,4.03725 -3.39073,2.1426 -23.33989,-12.22692 -0.70813,-3.36043 z"
       style="fill:#a05a2c;fill-opacity:1;stroke:#000000;stroke-opacity:1;stroke-width:0.69999999999999996;stroke-miterlimit:4;stroke-dasharray:none;opacity:1"
       inkscape:export-filename="D:\Char\Desktop\Sonarin Project\Prototyping\4\Sona\etwahl.png"
       inkscape:export-xdpi="90"
       inkscape:export-ydpi="90" />
    <path
       style="fill:#37abc8;fill-opacity:1;stroke:none;opacity:1"
       d="m 489.94619,453.25492 84.86729,-55.02705 0.65254,0.31521 -85.20734,55.06899 z"
       id="rect4165"
       inkscape:connector-curvature="0"
       sodipodi:nodetypes="ccccc"
       inkscape:export-filename="D:\Char\Desktop\Sonarin Project\Prototyping\4\Sona\etwahl.png"
       inkscape:export-xdpi="90"
       inkscape:export-ydpi="90" />
    <path
       sodipodi:nodetypes="ccccc"
       inkscape:connector-curvature="0"
       id="path4168"
       d="m 494.46123,457.22156 85.93872,-55.65205 0.65254,0.31521 -86.27877,55.69399 z"
       style="fill:#37abc8;fill-opacity:1;stroke:none;opacity:1"
       inkscape:export-filename="D:\Char\Desktop\Sonarin Project\Prototyping\4\Sona\etwahl.png"
       inkscape:export-xdpi="90"
       inkscape:export-ydpi="90" />
    <path
       style="fill:#37abc8;fill-opacity:1;stroke:none;opacity:1"
       d="m 499.2901,462.34629 88.26015,-57.79491 0.65254,0.31521 -88.6002,57.83685 z"
       id="path4170"
       inkscape:connector-curvature="0"
       sodipodi:nodetypes="ccccc"
       inkscape:export-filename="D:\Char\Desktop\Sonarin Project\Prototyping\4\Sona\etwahl.png"
       inkscape:export-xdpi="90"
       inkscape:export-ydpi="90" />
    <path
       style="fill:#a05a2c;fill-opacity:1;stroke:#000000;stroke-opacity:1;stroke-width:0.69999999999999996;stroke-miterlimit:4;stroke-dasharray:none;opacity:1"
       d="m 485.1413,449.01419 19.77066,16.70187 -0.21167,4.12236 -3.82895,1.19454 -19.39184,-17.8383 0.18348,-3.42932 z"
       id="rect4147"
       inkscape:connector-curvature="0"
       sodipodi:nodetypes="ccccccc"
       inkscape:export-filename="D:\Char\Desktop\Sonarin Project\Prototyping\4\Sona\etwahl.png"
       inkscape:export-xdpi="90"
       inkscape:export-ydpi="90" />
    <path
       sodipodi:nodetypes="ccccc"
       inkscape:connector-curvature="0"
       id="path4172"
       d="m 376.01762,494.68349 110.1211,-39.11715 0.65254,0.31521 -110.46115,39.15909 z"
       style="fill:#37abc8;fill-opacity:1;stroke:none;opacity:1"
       inkscape:export-filename="D:\Char\Desktop\Sonarin Project\Prototyping\4\Sona\etwahl.png"
       inkscape:export-xdpi="90"
       inkscape:export-ydpi="90" />
    <path
       style="fill:#37abc8;fill-opacity:1;stroke:none;opacity:1"
       d="m 380.12476,498.79063 110.1211,-39.11715 0.65254,0.31521 -110.46115,39.15909 z"
       id="path4174"
       inkscape:connector-curvature="0"
       sodipodi:nodetypes="ccccc"
       inkscape:export-filename="D:\Char\Desktop\Sonarin Project\Prototyping\4\Sona\etwahl.png"
       inkscape:export-xdpi="90"
       inkscape:export-ydpi="90" />
    <path
       sodipodi:nodetypes="ccccc"
       inkscape:connector-curvature="0"
       id="path4176"
       d="m 385.66047,504.32634 110.1211,-39.11715 0.65254,0.31521 -110.46115,39.15909 z"
       style="fill:#37abc8;fill-opacity:1;stroke:none;opacity:1"
       inkscape:export-filename="D:\Char\Desktop\Sonarin Project\Prototyping\4\Sona\etwahl.png"
       inkscape:export-xdpi="90"
       inkscape:export-ydpi="90" />
    <path
       sodipodi:nodetypes="ccccccc"
       inkscape:connector-curvature="0"
       id="path4161"
       d="m 372.00421,489.16775 19.77066,16.70187 -0.21167,4.12236 -3.82895,1.19454 -19.39184,-17.8383 0.18348,-3.42932 z"
       style="fill:#a05a2c;fill-opacity:1;stroke:#000000;stroke-width:0.69999999999999996;stroke-miterlimit:4;stroke-dasharray:none;stroke-opacity:1;opacity:1"
       inkscape:export-filename="D:\Char\Desktop\Sonarin Project\Prototyping\4\Sona\etwahl.png"
       inkscape:export-xdpi="90"
       inkscape:export-ydpi="90" />
    <path
       style="fill:#d4aa00;fill-opacity:1;stroke:#000000;stroke-opacity:1"
       d="m 359.30085,457.40263 -7.79172,-12.79937 -32.81162,-17.74734 -13.69178,-10.91148 6.249,1.23936 9.91287,7.89395 34.89136,18.00637 9.61561,14.57958 0.31648,39.14738 5.68417,20.19056 -5.55584,2.27284 -6.17172,-22.45277 z"
       id="rect4178"
       inkscape:connector-curvature="0"
       sodipodi:nodetypes="ccccccccccccc"
       inkscape:export-filename="D:\Char\Desktop\Sonarin Project\Prototyping\4\Sona\etwahl-right-wing.png"
       inkscape:export-xdpi="90"
       inkscape:export-ydpi="90" />
    <path
       style="fill:#000000;fill-opacity:1;stroke:none;opacity:1"
       d="m 481.66125,449.78251 19.39544,17.24456 0.0103,0.15658 -19.42408,-17.26104 z"
       id="rect4181"
       inkscape:connector-curvature="0"
       sodipodi:nodetypes="ccccc"
       inkscape:export-filename="D:\Char\Desktop\Sonarin Project\Prototyping\4\Sona\etwahl.png"
       inkscape:export-xdpi="90"
       inkscape:export-ydpi="90" />
    <path
       sodipodi:nodetypes="ccccc"
       inkscape:connector-curvature="0"
       id="path4211"
       d="m 501.03624,467.06065 3.88205,-1.32823 -0.01,0.11656 -3.85453,1.31531 z"
       style="fill:#000000;fill-opacity:1;stroke:none;opacity:1"
       inkscape:export-filename="D:\Char\Desktop\Sonarin Project\Prototyping\4\Sona\etwahl.png"
       inkscape:export-xdpi="90"
       inkscape:export-ydpi="90" />
    <path
       style="fill:#000000;fill-opacity:1;stroke:none;opacity:1"
       d="m 500.86959,470.9793 0.16224,-3.84834 0.0766,0.004 -0.14261,3.87911 z"
       id="path4224"
       inkscape:connector-curvature="0"
       sodipodi:nodetypes="ccccc"
       inkscape:export-filename="D:\Char\Desktop\Sonarin Project\Prototyping\4\Sona\etwahl.png"
       inkscape:export-xdpi="90"
       inkscape:export-ydpi="90" />
    <path
       style="fill:#000000;fill-opacity:1;stroke:none;opacity:1"
       d="m 568.26051,393.86748 23.1566,11.6084 0.0103,0.15658 -23.18524,-11.62488 z"
       id="rect4181-8"
       inkscape:connector-curvature="0"
       sodipodi:nodetypes="ccccc"
       inkscape:export-filename="D:\Char\Desktop\Sonarin Project\Prototyping\4\Sona\etwahl.png"
       inkscape:export-xdpi="90"
       inkscape:export-ydpi="90" />
    <path
       sodipodi:nodetypes="ccccc"
       inkscape:connector-curvature="0"
       id="path4211-9"
       d="m 591.4005,405.50428 3.22758,-2.1996 0.0216,0.0771 -3.23163,2.22614 z"
       style="fill:#000000;fill-opacity:1;stroke:none;opacity:1"
       inkscape:export-filename="D:\Char\Desktop\Sonarin Project\Prototyping\4\Sona\etwahl.png"
       inkscape:export-xdpi="90"
       inkscape:export-ydpi="90" />
    <path
       style="fill:#000000;fill-opacity:1;stroke:none;opacity:1"
       d="m 592.15635,409.30534 -0.79759,-3.75906 0.0766,0.004 0.81722,3.78983 z"
       id="path4224-3"
       inkscape:connector-curvature="0"
       sodipodi:nodetypes="ccccc"
       inkscape:export-filename="D:\Char\Desktop\Sonarin Project\Prototyping\4\Sona\etwahl.png"
       inkscape:export-xdpi="90"
       inkscape:export-ydpi="90" />
    <path
       sodipodi:nodetypes="ccccc"
       inkscape:connector-curvature="0"
       id="path4288"
       d="m 368.62812,489.92107 19.25035,16.98786 0.0103,0.15658 -19.27899,-17.00434 z"
       style="fill:#000000;fill-opacity:1;stroke:none;opacity:1"
       inkscape:export-filename="D:\Char\Desktop\Sonarin Project\Prototyping\4\Sona\etwahl.png"
       inkscape:export-xdpi="90"
       inkscape:export-ydpi="90" />
    <path
       style="fill:#000000;fill-opacity:1;stroke:none;opacity:1"
       d="m 387.85802,506.92019 3.89321,-1.03805 -0.01,0.11656 -3.86569,1.02513 z"
       id="path4290"
       inkscape:connector-curvature="0"
       sodipodi:nodetypes="ccccc"
       inkscape:export-filename="D:\Char\Desktop\Sonarin Project\Prototyping\4\Sona\etwahl.png"
       inkscape:export-xdpi="90"
       inkscape:export-ydpi="90" />
    <path
       sodipodi:nodetypes="ccccc"
       inkscape:connector-curvature="0"
       id="path4292"
       d="m 387.72485,511.11786 0.1176,-4.13852 0.0766,0.004 -0.098,4.16929 z"
       style="fill:#000000;fill-opacity:1;stroke:none;opacity:1"
       inkscape:export-filename="D:\Char\Desktop\Sonarin Project\Prototyping\4\Sona\etwahl.png"
       inkscape:export-xdpi="90"
       inkscape:export-ydpi="90" />
    <path
       style="fill:#aa8800;fill-opacity:1;stroke:#000000;stroke-width:1;stroke-miterlimit:4;stroke-opacity:1;stroke-dasharray:none"
       d="m 343.28125,509.57201 -1.88125,-7.62238 24.5287,16.96649 18.45669,2.92682 75.63854,-24.69774 51.41014,-18.26881 41.41823,-28.30702 42.70003,-35.26432 16.69141,-24.05019 -2.7235,12.74979 -0.26017,17.23618 -4.96135,13.94237 -7.81051,11.00302 -14.38582,4.69667 -12.83814,7.75408 -11.87428,13.3929 -7.81045,13.21862 -6.7621,22.75131 -1.77472,18.56155 -7.55005,-2.82075 -2.23231,6.68129 -18.30059,-8.48578 -13.986,-4.56896 -22.27827,-3.95049 -20.33348,1.13786 -13.76463,1.85846 -12.31624,6.14573 -18.65362,10.8343 -22.72373,3.65883 -17.5927,-7.58017 L 360,521.06754 z"
       id="rect4294"
       inkscape:connector-curvature="0"
       sodipodi:nodetypes="cccccccccccccccccccccccccccccccc"
       inkscape:export-filename="D:\Char\Desktop\Sonarin Project\Prototyping\4\Sona\etwahl.png"
       inkscape:export-xdpi="90"
       inkscape:export-ydpi="90" />
    <path
       style="fill:#d4aa00;fill-opacity:1;stroke:#000000;stroke-width:1;stroke-miterlimit:4;stroke-opacity:1"
       d="m 601.67026,380.23855 -7.56535,-12.8885 2.93111,-31.02075 -9.30376,-8.75123 -19.89087,-3.45036 -21.67802,-8.10972 -14.56821,-9.40489 2.66237,-0.0215 12.84174,7.49583 21.13816,7.76786 20.50938,3.85219 10.72541,8.25901 -2.50222,32.02594 7.04148,11.54835 8.51541,13.28672 -2.83854,4.25943 z"
       id="rect4299"
       inkscape:connector-curvature="0"
       sodipodi:nodetypes="ccccccccccccccccc"
       inkscape:export-filename="D:\Char\Desktop\Sonarin Project\Prototyping\4\Sona\etwahl.png"
       inkscape:export-xdpi="90"
       inkscape:export-ydpi="90" />
    <path
       style="fill:#d4aa00;fill-opacity:1;stroke:#000000;stroke-width:1;stroke-miterlimit:4;stroke-opacity:1;stroke-dasharray:none"
       d="m 309.90128,447.49636 18.0195,12.03254 16.97096,5.33065 -2.45001,0.98281 -15.70602,-4.77908 -16.61887,-13.52994 z"
       id="rect4302"
       inkscape:connector-curvature="0"
       sodipodi:nodetypes="ccccccc"
       inkscape:export-filename="D:\Char\Desktop\Sonarin Project\Prototyping\4\Sona\etwahl-right-wing.png"
       inkscape:export-xdpi="90"
       inkscape:export-ydpi="90" />
    <path
       style="fill:#d4aa00;fill-opacity:1;stroke:#000000;stroke-width:1;stroke-miterlimit:4;stroke-opacity:1"
       d="m 321.12392,478.18608 22.77199,10.87577 -5.49479,-0.11223 -17.42514,-10.73287 z"
       id="rect4318"
       inkscape:connector-curvature="0"
       sodipodi:nodetypes="ccccc"
       inkscape:export-filename="D:\Char\Desktop\Sonarin Project\Prototyping\4\Sona\etwahl-right-wing.png"
       inkscape:export-xdpi="90"
       inkscape:export-ydpi="90" />
    <path
       sodipodi:nodetypes="cccccccccccccccccccccccc"
       inkscape:connector-curvature="0"
       id="path4142"
       d="m 305.56882,416.59641 12.56564,10.14627 18.73038,9.94721 13.7622,7.42412 8.59818,13.1497 0.28963,24.53837 0.33501,14.00622 5.97543,22.95882 -24.46574,-16.99092 -0.27392,-6.54172 -8.76584,-3.92221 -11.63886,-13.13732 17.23128,10.42075 0.0656,-7.77889 -9.40579,-4.73915 -9.0863,-5.75796 -10.27631,-23.25511 17.5156,13.90997 15.5891,4.96169 -0.0727,-5.11363 -5.64408,-5.32356 -17.60719,-6.16859 -10.83062,-13.8529 z"
       style="fill:#d4aa00;fill-opacity:1;stroke:#000000;stroke-opacity:1"
       inkscape:export-filename="D:\Char\Desktop\Sonarin Project\Prototyping\4\Sona\etwahl-right-wing.png"
       inkscape:export-xdpi="90"
       inkscape:export-ydpi="90" />
    <path
       style="fill:#d4aa00;fill-opacity:1;stroke:#000000;stroke-width:1;stroke-miterlimit:4;stroke-opacity:1"
       d="m 543.79278,342.17648 -7.06976,-4.48274 19.84664,9.70875 21.65656,5.78529 -4.88567,0.18257 -17.74075,-4.07247 z"
       id="rect4321"
       inkscape:connector-curvature="0"
       sodipodi:nodetypes="ccccccc"
       inkscape:export-filename="D:\Char\Desktop\Sonarin Project\Prototyping\4\Sona\etwahl.png"
       inkscape:export-xdpi="90"
       inkscape:export-ydpi="90" />
    <path
       style="fill:#d4aa00;fill-opacity:1;stroke:#000000;stroke-width:1;stroke-miterlimit:4;stroke-opacity:1"
       d="m 550.625,368.3443 27.67858,5.98215 -9.64286,-0.26786 -17.94643,-5.71429 z"
       id="rect4324"
       inkscape:connector-curvature="0"
       sodipodi:nodetypes="ccccc"
       inkscape:export-filename="D:\Char\Desktop\Sonarin Project\Prototyping\4\Sona\etwahl.png"
       inkscape:export-xdpi="90"
       inkscape:export-ydpi="90" />
    <path
       style="fill:#d4aa00;fill-opacity:1;stroke:#000000;stroke-opacity:1"
       d="m 530.53526,306.93392 14.83848,8.88358 22.01338,8.17944 20.07565,3.38351 9.60834,8.85655 -3.24591,30.85182 7.65862,12.99607 7.64942,14.76216 -37.63022,-7.65784 0.10489,-4.64768 -14.82676,-3.92221 -5.83048,-10.10686 17.48382,5.62252 0.0656,-6.01112 -12.43625,-2.71884 -10.09645,-5.75796 -9.26616,-21.99242 18.77829,11.63712 17.35687,3.95154 -0.0727,-5.11363 -5.64408,-5.32356 -19.6275,-5.41098 -11.84077,-10.5699 z"
       id="rect4118"
       inkscape:connector-curvature="0"
       sodipodi:nodetypes="cccccccccccccccccccccccc"
       inkscape:export-filename="D:\Char\Desktop\Sonarin Project\Prototyping\4\Sona\etwahl.png"
       inkscape:export-xdpi="90"
       inkscape:export-ydpi="90" />
    <rect
       style="fill:#e9afaf;fill-opacity:1;stroke:#000000;stroke-width:1.00916946;stroke-opacity:1"
       id="rect4337"
       width="28.552217"
       height="21.517857"
       x="392.16199"
       y="251.20802"
       inkscape:export-filename="D:\Char\Desktop\Sonarin Project\Prototyping\4\Sona\upper-body-corner.png"
       inkscape:export-xdpi="90"
       inkscape:export-ydpi="90" />
    <rect
       style="fill:#e9afaf;fill-opacity:1;stroke:none"
       id="rect4339"
       width="2.8571429"
       height="20.395132"
       x="390.63391"
       y="251.69917"
       inkscape:export-filename="D:\Char\Desktop\Sonarin Project\Prototyping\4\Sona\upper-body-corner.png"
       inkscape:export-xdpi="90"
       inkscape:export-ydpi="90" />
    <path
       style="fill:#3cd4fc;fill-opacity:1;stroke:#000000;stroke-width:1;stroke-miterlimit:4;stroke-opacity:1"
       d="m 421.10735,250.80613 26.15103,30.9314 -15.87724,60.20186 -38.384,0.17441 -0.36346,-69.52625 z"
       id="rect4327"
       inkscape:connector-curvature="0"
       sodipodi:nodetypes="cccccc"
       inkscape:export-filename="D:\Char\Desktop\Sonarin Project\Prototyping\4\Sona\upper-body-corner.png"
       inkscape:export-xdpi="90"
       inkscape:export-ydpi="90" />
    <path
       style="fill:#3cd4fc;fill-opacity:1;stroke:none"
       d="m 392.78317,272.99258 2.63765,-1.90225 49.43409,8.61558 1.78572,1.85269 -0.24277,1.02052 -15.57421,60.36105 -41.9056,1.15266 -0.041,-70.73774 z"
       id="rect4330"
       inkscape:connector-curvature="0"
       sodipodi:nodetypes="ccccccccc"
       inkscape:export-filename="D:\Char\Desktop\Sonarin Project\Prototyping\4\Sona\upper-body-corner.png"
       inkscape:export-xdpi="90"
       inkscape:export-ydpi="90" />
  </g>
</svg>
